<svg xmlns:dc="http://purl.org/dc/elements/1.1/" xmlns:cc="http://creativecommons.org/ns#" xmlns:rdf="http://www.w3.org/1999/02/22-rdf-syntax-ns#" xmlns:svg="http://www.w3.org/2000/svg" xmlns="http://www.w3.org/2000/svg" xmlns:sodipodi="http://sodipodi.sourceforge.net/DTD/sodipodi-0.dtd" xmlns:inkscape="http://www.inkscape.org/namespaces/inkscape" viewBox="0 0 16.933333 21.1666675" version="1.1" x="0px" y="0px"><g transform="translate(0,-280.06665)"><path style="color:#000000;font-style:normal;font-variant:normal;font-weight:normal;font-stretch:normal;font-size:medium;line-height:normal;font-family:sans-serif;font-variant-ligatures:normal;font-variant-position:normal;font-variant-caps:normal;font-variant-numeric:normal;font-variant-alternates:normal;font-feature-settings:normal;text-indent:0;text-align:start;text-decoration:none;text-decoration-line:none;text-decoration-style:solid;text-decoration-color:#000000;letter-spacing:normal;word-spacing:normal;text-transform:none;writing-mode:lr-tb;direction:ltr;text-orientation:mixed;dominant-baseline:auto;baseline-shift:baseline;text-anchor:start;white-space:normal;shape-padding:0;clip-rule:nonzero;display:inline;overflow:visible;visibility:visible;opacity:1;isolation:auto;mix-blend-mode:normal;color-interpolation:sRGB;color-interpolation-filters:linearRGB;solid-color:#000000;solid-opacity:1;vector-effect:none;fill:#000000;fill-opacity:1;fill-rule:nonzero;stroke:none;stroke-width:0.5291667;stroke-linecap:butt;stroke-linejoin:round;stroke-miterlimit:4;stroke-dasharray:none;stroke-dashoffset:0;stroke-opacity:1;color-rendering:auto;image-rendering:auto;shape-rendering:auto;text-rendering:auto;enable-background:accumulate" d="m 15.528758,289.59216 h 0.61133 c 0.14633,-2.9e-4 0.26463,-0.1193 0.26407,-0.26562 v -1.58595 c 5.56e-4,-0.14632 -0.11774,-0.26532 -0.26407,-0.26562 h -0.61133 l -1.52342,-4.06073 c -2.3e-4,-6.1e-4 2e-4,-0.002 0,-0.002 -0.13522,-0.41518 -0.3896,-0.69918 -0.77514,-0.69918 H 3.7046781 c -0.4522898,0 -0.6395598,0.33431 -0.7772199,0.70125 l -1.52342,4.06072 H 0.79477825 c -0.14693,-5.6e-4 -0.26618,0.11869 -0.26562,0.26562 v 1.58595 c -5.291e-4,0.14692 0.11869,0.26617 0.26562,0.26561 H 1.4040382 l 1.52342,4.06022 c 0.1376601,0.36694 0.3249301,0.70125 0.7772199,0.70125 h 9.5255199 c 0.38554,0 0.63992,-0.28401 0.77514,-0.70022 z M 3.7046781,283.24267 h 9.5255199 c 0.13861,0 0.22642,0.21115 0.28112,0.35709 l 1.4521,3.87521 h -2.52801 c -0.34504,0.008 -0.34504,0.52152 0,0.52917 h 3.43907 v 1.05885 H 1.0583282 v -1.05885 h 8.9958298 c 0.34504,-0.008 0.34504,-0.52151 0,-0.52917 H 1.9693782 l 1.4541801,-3.87521 c 0.0722,-0.19244 0.14911,-0.35709 0.2811198,-0.35709 z m 7.4083299,4.2323 c -0.34504,0.008 -0.34504,0.52152 0,0.52917 h 0.26355 c 0.34504,-0.008 0.34504,-0.52151 0,-0.52917 z m -9.1431098,2.11719 h 4.1155101 v 1.32188 c -7.938e-4,0.14632 0.11723,0.26555 0.2635498,0.26613 h 4.2343699 c 0.14652,-2.9e-4 0.26491,-0.11961 0.26406,-0.26613 v -1.32188 h 4.11603 l -1.4521,3.8747 c -0.0547,0.14594 -0.14251,0.3576 -0.28112,0.3576 H 3.7046781 c -0.1320098,0 -0.20892,-0.16517 -0.2811198,-0.3576 z m 4.6446799,0 h 3.7031299 v 1.05833 H 6.6145781 Z"/></g></svg>
