<svg xmlns="http://www.w3.org/2000/svg" xmlns:xlink="http://www.w3.org/1999/xlink" xml:space="preserve" style="shape-rendering:geometricPrecision;text-rendering:geometricPrecision;image-rendering:optimizeQuality;" viewBox="0 0 173.397 216.74624999999997" x="0px" y="0px" fill-rule="evenodd" clip-rule="evenodd"><defs><style type="text/css">

    .fil1 {fill:none}
    .fil0 {fill:black}

  </style></defs><g><g><path class="fil0" d="M93.4856 119.864c-3.5176,0 -6.5106,-0.2062 -8.2205,-0.3565 -9.1085,-0.7939 -8.6229,-11.546 -8.2349,-20.1829 0.231,-5.0983 0.4687,-10.371 -1.2482,-12.1649 -0.4365,-0.458 -1.007,-0.6713 -1.7973,-0.6713l-41.2253 -0.0001c-0.2557,0 -0.497,-0.0034 -0.7209,-0.0034 -0.6425,-0.0036 -1.3041,-0.007 -1.6399,0.0349 -0.0553,0.3741 -0.056,1.1434 -0.056,1.6784l0.0007 11.8432c0,0.7413 -0.602,1.3428 -1.3433,1.3428 -0.7408,-0.0001 -1.3427,-0.6014 -1.3427,-1.3428l0 -11.8433c0,-1.7063 0,-2.8321 0.8042,-3.6329 0.7835,-0.7798 1.8428,-0.7727 3.5911,-0.7658 0.2206,-0.0001 0.4547,0.0035 0.7063,0.0035l41.2263 0c1.5278,0 2.7863,0.5035 3.7409,1.5001 2.5074,2.626 2.2659,7.9619 1.9863,14.1405 -0.4442,9.8501 -0.287,16.861 5.7869,17.389 3.6159,0.3182 21.9766,1.591 28.3439,-4.301 1.1474,-1.0596 1.8498,-4.4232 1.6364,-7.815 -0.3489,-5.5423 -2.1188,-13.7 -3.6819,-20.8961 -0.7164,-3.287 -1.3917,-6.399 -1.8987,-9.0984 -1.185,-1.4337 -5.9479,-7.6681 -3.745,-12.9377 1.6575,-3.9653 6.7381,-6.1961 15.0987,-6.6366 0.3672,-0.0176 0.7274,0.1119 0.993,0.3671 0.2694,0.2516 0.4197,0.6049 0.4197,0.9721l0 19.6688c1.9237,0 4.3919,0.8951 5.7415,4.196l10.3995 26.8055c0.2691,0.6922 -0.0773,1.4686 -0.7662,1.7379 -0.6916,0.2656 -1.4685,-0.0769 -1.7378,-0.7658l-10.3885 -26.7847c-1.269,-3.0944 -3.7066,-2.5175 -4.182,-2.3706 -0.4055,0.1259 -0.8568,0.0525 -1.1995,-0.2028 -0.3421,-0.2519 -0.5524,-0.6504 -0.5524,-1.077l0.0003 -19.7703c-6.3082,0.5175 -10.2177,2.1995 -11.347,4.892 -1.5,3.5769 2.035,8.7347 3.5244,10.4166 0.1611,0.1852 0.2693,0.4056 0.3149,0.6468 0.5071,2.7378 1.2062,5.9583 1.9476,9.3712 1.5846,7.287 3.3779,15.5496 3.738,21.2947 0.21,3.3358 -0.3147,7.9445 -2.4931,9.9586 -4.7797,4.423 -14.665,5.3603 -22.1795,5.3602zm17.5855 14.9448c-0.1716,0 -0.3433,0.0002 -0.5182,-0.0034l-29.9873 0c-8.8006,0 -19.2354,-1.5245 -21.8159,-13.4202 -0.1574,-0.724 0.3042,-1.4406 1.028,-1.5945 0.7242,-0.1609 1.4407,0.3007 1.5979,1.0245 2.1615,9.962 10.9133,11.3048 19.1899,11.3048l30.0123 -0.0001c11.1576,0.1924 14.5212,-6.6926 14.6576,-6.9863 0.315,-0.6678 1.1119,-0.9616 1.7832,-0.6504 0.6718,0.3112 0.9653,1.1015 0.6575,1.7728 -0.1604,0.3566 -4.0597,8.553 -16.605,8.5528z"/><path class="fil0" d="M143.031 146.383c-8.9131,0 -16.1657,-7.2521 -16.1657,-16.1651 0.0003,-1.6787 0.2553,-3.3394 0.7658,-4.9269 0.2242,-0.7064 0.9791,-1.0979 1.6855,-0.8706 0.7102,0.2271 1.0979,0.9825 0.8706,1.6888 -0.4224,1.3253 -0.6364,2.7065 -0.6364,4.1087 0,7.4337 6.0457,13.4797 13.4796,13.4797 7.4346,-0.0002 13.4833,-6.0458 13.4833,-13.4797 0.0007,-1.4023 -0.2167,-2.7833 -0.64,-4.1087 -0.2233,-0.7064 0.1644,-1.4616 0.8707,-1.6888 0.7069,-0.2273 1.4617,0.1643 1.689,0.8706 0.5073,1.5874 0.7657,3.2484 0.7657,4.9269 0.0004,8.9128 -7.2522,16.1651 -16.1681,16.1651z"/><path class="fil0" d="M143.031 138.075c-4.3327,0 -7.8575,-3.5245 -7.8575,-7.8568 0.0002,-2.0457 0.7798,-3.9792 2.1994,-5.4514 0.5143,-0.535 1.3637,-0.5489 1.8986,-0.0349 0.5322,0.5139 0.5492,1.3637 0.035,1.8986 -0.9331,0.9685 -1.4476,2.2414 -1.4476,3.5877 0,2.8497 2.3218,5.1716 5.1715,5.1716 2.8533,-0.0002 5.1716,-2.3219 5.1716,-5.1716 0.0003,-1.3464 -0.5138,-2.619 -1.444,-3.5877 -0.514,-0.535 -0.5002,-1.3846 0.0349,-1.8986 0.5322,-0.5141 1.3847,-0.4966 1.8988,0.0349 1.4161,1.4721 2.1958,3.4058 2.1958,5.4514 0.0007,4.3322 -3.5246,7.857 -7.8565,7.8568z"/><path class="fil0" d="M20.3319 119.76l51.4464 0c-0.6993,-13.5811 -11.9692,-24.4138 -25.7215,-24.4138 -13.7521,-0.0001 -25.0222,10.8327 -25.7249,24.4138zm52.8248 2.6853l-54.2025 0c-0.7411,0 -1.3393,-0.6013 -1.3393,-1.3426 0.0004,-15.6826 12.7557,-28.4419 28.4419,-28.4419 15.6825,0 28.4419,12.7594 28.4419,28.4419 0.0002,0.7412 -0.6014,1.3427 -1.342,1.3426z"/><path class="fil0" d="M39.5113 146.383c-9.707,0 -17.5991,-7.8956 -17.5991,-17.5988 0.0002,-2.8989 0.7203,-5.7765 2.0876,-8.3186 0.35,-0.6539 1.1644,-0.8986 1.8182,-0.5454 0.6505,0.3495 0.8988,1.1643 0.5455,1.8182 -1.1569,2.1504 -1.7658,4.5877 -1.7658,7.0458 0.0007,8.2241 6.6891,14.9134 14.9133,14.9134 8.221,-0.0002 14.9133,-6.6892 14.9133,-14.9134 0.0007,-2.4583 -0.6119,-4.8954 -1.7693,-7.0458 -0.3527,-0.6539 -0.1049,-1.4686 0.5455,-1.8182 0.6541,-0.3533 1.4686,-0.1084 1.8182,0.5454 1.3677,2.542 2.091,5.4199 2.091,8.3186 0.0004,9.7031 -7.8954,17.5988 -17.5984,17.5988z"/><path class="fil0" d="M39.5113 122.984c-3.1998,0 -5.8012,2.6015 -5.8012,5.8009 0.0005,3.1995 2.6014,5.8011 5.8009,5.8011 3.196,-0.0002 5.7975,-2.6016 5.7975,-5.8011 0.0004,-3.1996 -2.6016,-5.8009 -5.7972,-5.8009zm0 14.2874c-4.682,0 -8.4867,-3.808 -8.4867,-8.4865 0,-4.6786 3.8043,-8.4864 8.4864,-8.4864 4.6792,0 8.4828,3.8079 8.4828,8.4864 0.0002,4.6785 -3.8042,8.4865 -8.4825,8.4865z"/><path class="fil0" d="M55.6311 104.297l-19.1512 0c-0.7419,0 -1.3431,-0.6014 -1.3431,-1.3426 0.0002,-0.7413 0.6012,-1.3427 1.3426,-1.3427l19.1517 -0.0001c0.7411,0 1.3422,0.6015 1.3422,1.3428 0.0007,0.7411 -0.6012,1.3428 -1.3422,1.3426z"/><path class="fil0" d="M55.6311 113.494l-19.1512 0c-0.7419,0 -1.3431,-0.6015 -1.3431,-1.3428 0.0002,-0.7414 0.6012,-1.3426 1.3426,-1.3426l19.1517 -0.0002c0.7411,0 1.3422,0.6015 1.3422,1.3428 0.0007,0.7412 -0.6012,1.3428 -1.3422,1.3428z"/><path class="fil0" d="M121.323 73.0546c-0.7411,0 -1.3432,-0.5979 -1.3432,-1.3427 0.0003,-0.7414 0.6014,-1.3427 1.3427,-1.3427 3.4582,-0.0002 6.2694,-2.8113 6.2694,-6.2696 0.0007,-3.4548 -2.8114,-6.2695 -6.2694,-6.2695 -0.7406,-0.0001 -1.3427,-0.6014 -1.3427,-1.3427 0.0003,-0.7414 0.6014,-1.3427 1.3427,-1.3427 4.9374,-0.0001 8.955,4.0177 8.955,8.9549 0.0003,4.9372 -4.0178,8.9551 -8.9545,8.955z"/><path class="fil0" d="M82.0801 86.4888l-11.4103 0c-0.7411,0 -1.3427,-0.6014 -1.3427,-1.3427 0.0005,-0.7448 0.6016,-1.3427 1.3427,-1.3427l11.4103 0c1.5869,0 2.8772,-1.2903 2.8772,-2.8777 0.0007,-1.5841 -1.2903,-2.8743 -2.8777,-2.8743l-26.6727 -0.0002c-1.5869,0 -2.8778,1.2905 -2.8778,2.8745 0.0006,1.5874 1.2903,2.8777 2.8778,2.8777 0.7419,0 1.3426,0.5979 1.3426,1.3427 0.0003,0.7412 -0.6012,1.3428 -1.3426,1.3428 -3.0661,-0.0001 -5.5633,-2.4967 -5.5633,-5.5632 0.0001,-3.0669 2.4967,-5.5598 5.5633,-5.5598l26.6732 -0.0001c3.0659,0 5.5626,2.4932 5.5626,5.5599 0.0005,3.0665 -2.4967,5.5632 -5.5626,5.5631z"/><path class="fil0" d="M32.8498 86.4923c-0.5978,0 -1.1399,-0.3986 -1.2972,-1.0035l-5.4374 -20.7248c-0.1888,-0.7169 0.2412,-1.4511 0.9581,-1.64 0.7169,-0.1852 1.4512,0.2414 1.6364,0.9582l5.4375 20.7246c0.1888,0.7203 -0.2379,1.4512 -0.9582,1.6402 -0.1118,0.0314 -0.2273,0.0453 -0.3392,0.0453z"/><path class="fil0" d="M47.5394 86.4923c-0.5941,0 -1.1399,-0.3986 -1.2973,-1.0035l-5.4366 -20.7248c-0.1889,-0.7169 0.2405,-1.4511 0.9572,-1.64 0.717,-0.1852 1.4512,0.2414 1.6401,0.9582l5.4378 20.7246c0.1888,0.7203 -0.2417,1.4512 -0.9586,1.6402 -0.1154,0.0314 -0.2273,0.0453 -0.3426,0.0453z"/><path class="fil0" d="M57.9599 65.7675l-46.457 0c-0.7411,0 -1.3429,-0.6013 -1.3429,-1.3427 0,-0.7414 0.6012,-1.3427 1.3426,-1.3427l46.4573 0c0.745,0 1.3423,0.6014 1.3423,1.3427 0.0006,0.7413 -0.5979,1.3428 -1.3423,1.3427z"/><path class="fil0" d="M15.0733 65.7675c-0.7411,0 -1.3433,-0.6013 -1.3433,-1.3427l0.0002 -29.1413c0,-0.7413 0.6014,-1.3427 1.3426,-1.3427 0.7416,0 1.3427,0.6015 1.3427,1.3428l0.0007 29.1411c0,0.7414 -0.6021,1.3429 -1.3429,1.3428zm39.3162 0c-0.7411,0 -1.3429,-0.6013 -1.3429,-1.3427l0 -29.1413c0,-0.7413 0.6015,-1.3427 1.3426,-1.3427 0.7414,0 1.343,0.6015 1.343,1.3428l0.0004 29.1411c0,0.7414 -0.6021,1.3429 -1.3431,1.3428z"/><path class="fil0" d="M16.4162 33.9408l36.6304 0 0 -4.2416 -36.6304 0 0 4.2416zm37.9733 2.6854l-39.3162 0c-0.7411,0 -1.3433,-0.6013 -1.3433,-1.3426l0.0002 -6.9269c0,-0.7413 0.6014,-1.3428 1.3426,-1.3428l39.3167 0c0.7411,0 1.3427,0.6015 1.3427,1.3428l0.0004 6.9268c0,0.7413 -0.6021,1.3427 -1.3431,1.3427z"/><path class="fil0" d="M46.6204 59.3406l-23.778 0c-0.7412,0 -1.3392,-0.6014 -1.3392,-1.3427l0.0002 -5.1052c0,-0.7413 0.5977,-1.3426 1.339,-1.3426 0.745,-0.0002 1.3427,0.6014 1.3427,1.3427l0.0003 3.7624 21.092 0 0 -3.7625c0,-0.7413 0.6009,-1.3426 1.3424,-1.3426 0.7417,-0.0002 1.3426,0.6014 1.3426,1.3427l0.0002 5.1051c0,0.7411 -0.6015,1.3428 -1.3422,1.3427z"/><path class="fil0" d="M24.2869 51.5499l20.8922 0c-0.7058,-4.7939 -5.1226,-8.4967 -10.448,-8.4967 -5.3248,-0.0002 -9.7417,3.7029 -10.4442,8.4967zm22.3335 2.6856l-23.778 0c-0.7412,0 -1.3392,-0.6014 -1.3392,-1.3427 0.0002,-6.906 5.9338,-12.5251 13.2279,-12.5251 7.2947,-0.0001 13.2313,5.6192 13.2313,12.5251 0.0002,0.7412 -0.6013,1.3427 -1.342,1.3427z"/><path class="fil0" d="M125.561 124.358l34.9389 0c-0.6853,-9.0388 -8.2592,-16.179 -17.4696,-16.179 -9.21,-0.0002 -16.7804,7.1402 -17.4693,16.179zm36.3346 2.6855l-37.7263 0c-0.7443,0 -1.3427,-0.6014 -1.3427,-1.3426 0.0005,-11.1441 9.0634,-20.2073 20.2037,-20.2073 11.1441,-0.0002 20.2073,9.0633 20.2073,20.2073 0.0002,0.7412 -0.6013,1.3426 -1.342,1.3426z"/><path class="fil0" d="M106.927 66.4423l-2.0213 0c-1.9125,0 -3.5563,-0.9475 -4.5108,-2.6049l-0.8878 -1.5316c-0.469,-0.8147 -1.2453,-1.2623 -2.1859,-1.2623l-6.0073 -0.0001c-0.7412,0 -1.3427,-0.6013 -1.3427,-1.3426 0.0005,-0.7414 0.6014,-1.3427 1.3427,-1.3427l6.0076 0c1.9126,0 3.5558,0.9476 4.514,2.605l0.8847 1.5315c0.4689,0.8147 1.2447,1.2624 2.1853,1.2624l2.0215 0c0.7411,0 1.3423,0.6014 1.3423,1.3427 0.0006,0.7411 -0.6014,1.3427 -1.3423,1.3426z"/></g></g><rect class="fil1" width="173.397" height="173.397"/></svg>
